<?xml version="1.0" encoding="utf-8"?>
<!-- Generator: Adobe Illustrator 27.0.0, SVG Export Plug-In . SVG Version: 6.00 Build 0)  -->
<svg version="1.1" id="_x32_22" xmlns="http://www.w3.org/2000/svg" xmlns:xlink="http://www.w3.org/1999/xlink" x="0px" y="0px"
	 viewBox="0 0 2600 2600" style="enable-background:new 0 0 2600 2600;" xml:space="preserve">
<style type="text/css">
	.st0{fill:#E5E7EB;}
</style>
<g transform="translate(0.000000,2600.000000) scale(0.100000,-0.100000)">
	<path class="st0" d="M13616.3,19980.2c-1478-103-3005-664-4153-1528c-577-434-1035-939-1426-1571c-203-328-303-513-653-1211
		c-151-303-298-585-326-627c-63-97-205-244-322-332c-127-95-222-155-525-330c-511-294-744-469-923-690c-239-297-348-614-348-1015
		c0-198,16-261,92-361c27-36,63-94,78-129c72-158,190-302,356-434l30-23l-25-17c-158-104-370-280-546-453c-102-100-115-110-170-124
		c-257-67-412-285-377-528c19-134,109-285,247-414c158-147,336-210,651-227c66-4,131-13,145-20c62-32,172-174,408-525
		c190-285,244-351,475-586c577-589,1210-1047,1983-1433c530-264,1372-592,1874-729c444-122,625-145,1220-157c430-9,677-32,752-71
		c16-9,76-59,132-113c129-124,176-161,257-205c149-81,280-116,439-117c297-1,516,107,929,458l154,131l51-18c181-62,415-93,696-93
		c309,0,609,33,984,108c813,161,1857,520,2611,898c528,264,1005,624,1373,1036c259,292,463,635,612,1031c34,91,70,181,81,201
		c45,90,162,147,399,194c251,50,349,86,481,176c108,73,236,230,277,341c26,68,22,218-7,291c-52,131-145,207-417,342
		c-194,96-167,64-254,292c-86,224-190,369-389,546c-171,152-415,322-549,381c-28,13-41,24-38,33c3,8,9,107,12,221
		c18,569-82,1280-272,1932c-51,175-72,216-142,282c-108,101-253,140-387,104c-27-7-113-40-190-73c-645-276-1378-491-2186-642
		c-561-104-1343-186-2023-212c-729-28-1307,49-1618,214c-99,52-166,111-202,177c-15,28-26,53-24,55c8,8,366,76,523,99
		c413,61,815,91,1725,131c767,33,1111,61,1530,121c810,117,1477,363,2008,741c307,218,378,307,390,485c3,59,0,91-16,145
		c-28,90-354,743-527,1053c-282,507-529,902-700,1119c-215,275-487,544-756,748c-714,542-1583,847-2624,923
		C14314.3,19993.2,13791.3,19992.2,13616.3,19980.2z M14376.3,19146.2c475-20,1011-135,1428-306c688-283,1215-729,1618-1369
		c175-279,430-731,637-1131l102-196l-128-75c-205-122-364-195-607-278c-555-189-1092-258-2450-315c-1187-50-1750-115-2370-274
		c-235-61-292-82-355-132c-139-110-188-272-177-587c5-175,28-281,90-428c89-212,272-417,502-561c82-52,273-140,385-177
		c596-199,1386-239,2575-130c704,64,1134,127,1697,248c519,112,1129,288,1538,442c63,24,117,40,121,36c8-9,62-284,89-452
		c82-518,78-1037-11-1470c-104-510-350-965-711-1315c-204-199-431-352-763-515c-366-179-740-311-1230-434
		c-651-162-1541-290-2350-337c-250-15-821-6-1035,15c-902,91-1627,335-2390,804c-259,160-446,294-810,581c-560,443-956,683-1460,886
		c-379,153-708,244-1419,396c-487,103-787,222-954,378c-58,54-81,95-102,187c-9,38-25,88-36,110c-19,40-19,44-3,120
		c41,203,163,359,412,532c77,54,267,168,567,342c493,286,777,529,987,849c41,62,178,322,340,645c456,911,649,1248,921,1611
		c189,252,501,580,732,771c946,782,2264,1335,3560,1493C13674.3,19154.2,13958.3,19164.2,14376.3,19146.2z"/>
</g>
</svg>
