<?xml version="1.0" encoding="utf-8"?>
<!-- Generator: Adobe Illustrator 27.0.0, SVG Export Plug-In . SVG Version: 6.00 Build 0)  -->
<svg version="1.1" id="图层_1" xmlns="http://www.w3.org/2000/svg" xmlns:xlink="http://www.w3.org/1999/xlink" x="0px" y="0px"
	 viewBox="0 0 32 32" style="enable-background:new 0 0 32 32;" xml:space="preserve">
<style type="text/css">
	.st0{fill:#374151;}
</style>
<g>
	<path class="st0" d="M4.1,13.4c-0.9-0.7-1.4-1.7-1.6-2.8C2.3,9,3,7.3,4.3,6.3c0.6-0.4,1.2-0.7,1.9-0.8c0.5-0.1,0.9-0.1,1.5,0
		c0.4,0.1,0.9,0.2,1.4,0.4c0.3,0.1,0.8,0.5,1.1,0.7c0.9,0.9,1.5,2.1,1.4,3.4l0,0.2l8.9,6.2l8.9,6.2l0.1,0.1c0.1,0.2,0.2,0.5,0.1,0.8
		c-0.1,0.2-1.7,2.6-1.9,2.7c-0.2,0.2-0.5,0.2-0.7,0.2l-0.1,0l-8.9-6.2l-8.9-6.2l-0.1,0C7.5,14.6,6.2,14.6,5,14
		C4.8,13.8,4.3,13.6,4.1,13.4z M6,12.5c0.9,0.4,2,0.3,2.7-0.3c0.3-0.2,0.4-0.4,0.7-0.7c0.3-0.4,0.4-0.7,0.5-1.2
		C9.9,9.5,9.7,8.7,9.1,8C8.9,7.8,8.4,7.5,8.2,7.4C7.1,6.9,5.8,7.2,5,8C4.8,8.2,4.5,8.6,4.4,8.9C4,10,4.3,11.2,5.2,12
		C5.3,12.2,5.7,12.4,6,12.5z M27.1,24l0.4-0.5l-8.2-5.7L11.1,12L11,12.2c-0.2,0.3-0.3,0.5-0.6,0.8L10.4,13l8.2,5.7l8.2,5.7L27.1,24z
		"/>
</g>
</svg>
